<?xml version="1.0" encoding="utf-8"?>
<svg xmlns="http://www.w3.org/2000/svg" viewBox="0 0 500 500" xmlns:bx="https://boxy-svg.com" width="500px" height="500px"><defs><bx:export><bx:file format="png"/><bx:file format="svg"/></bx:export></defs><rect width="500" height="500" style="fill: rgb(46, 52, 64); stroke: rgba(46, 52, 64, 0);" rx="1279" ry="1279"/><path style="stroke: rgb(0, 0, 0); stroke-opacity: 0; fill: rgb(94, 129, 172);" d="M 140.715 239.773 C 125.568 216.042 244.995 206.661 269.502 194.901 C 273.501 192.595 277.227 190.122 280.685 187.519 C 254.999 175.363 225.372 155.665 219.968 138.374 C 225.976 144.192 276.855 165.247 304.253 162.212 C 319.205 138.387 318.331 113.264 303.302 104.575 C 268.756 85.277 179.944 98.639 168.206 103.108 C 182.942 94.098 321.645 22.111 352.835 127.885 C 353.55 134.016 353.697 140.799 353.363 148.078 C 407.627 138.036 419.524 159.237 418.686 197.815 C 404.886 162.878 374.82 164.677 350.344 175.531 C 337.129 256.731 278.458 385.111 277.531 377.171 L 140.715 239.773 Z M 168.206 103.108 C 167.359 103.626 166.922 103.936 166.938 103.992 C 166.817 103.769 167.263 103.467 168.206 103.108 Z"/><ellipse style="stroke-width: 17px; paint-order: fill; fill: rgb(46, 52, 64); stroke: rgb(255, 180, 0);" cx="187.043" cy="323.397" rx="105.769" ry="105.769"/><path style="stroke-width: 17px; fill: oklch(0.88 0 0); stroke: rgb(255, 180, 0);" d="M 89.661 302.087 L 287.16 347.443 L 89.661 302.087 Z"/><ellipse style="stroke-width: 17px; fill-opacity: 0; fill: oklch(0.88 0 0); stroke: rgb(255, 180, 0);" cx="243.351" cy="321.823" rx="44.554" ry="99.898" transform="matrix(1, 0, -0.175167, 1, -0.620451, 2.02788)"/><path style="stroke-width: 17px; fill-opacity: 0; fill: oklch(0.88 0 0); transform-origin: 156.966px 395.56px 0px; stroke: rgb(255, 180, 0);" d="M 68.084 391.089 C 77.145 429.246 181.195 442.619 218.492 416.385 C 224.704 393.949 134.516 330.035 68.084 391.089 Z" transform="matrix(-0.994522, -0.104528, 0.104528, -0.994522, 0, 0)"/><path style="stroke-width: 17px; fill-opacity: 0; fill: oklch(0.88 0 0); transform-origin: 181.328px 256.379px 0px; stroke: rgb(255, 180, 0);" d="M 85.714 253.77 C 124.342 309.602 203.664 301.906 231.405 272.635 C 235.662 259.064 173.154 178.385 85.714 253.77 Z" transform="matrix(-0.994522, -0.104528, 0.104528, -0.994522, 0, 0)"/></svg>