<?xml version="1.0" encoding="utf-8"?>
<svg xmlns="http://www.w3.org/2000/svg" viewBox="0 0 1360 500" xmlns:bx="https://boxy-svg.com" width="1360px" height="500px"><defs><bx:export><bx:file format="png" path="logoLong.png"/><bx:file format="svg" path="logoLong.svg"/></bx:export></defs><rect x="214.525" y="76.536" width="1143.86" height="346.928" style="fill: rgb(216, 216, 216); stroke: rgba(0, 0, 0, 0);" rx="177" ry="177"/><rect width="500" height="500" style="fill: rgb(46, 52, 64); stroke: rgba(46, 52, 64, 0); stroke-width: 1;" rx="1279" ry="1279"/><a>
    <path style="stroke: rgb(0, 0, 0); stroke-opacity: 0; fill: rgb(94, 129, 172); stroke-width: 1;" d="M 143.878 239.86 C 128.731 216.129 248.158 206.748 272.665 194.988 C 276.664 192.682 280.39 190.209 283.848 187.606 C 258.162 175.45 228.535 155.752 223.131 138.461 C 229.139 144.279 280.018 165.334 307.416 162.299 C 322.368 138.474 321.494 113.351 306.465 104.662 C 271.919 85.364 183.107 98.726 171.369 103.195 C 186.105 94.185 324.808 22.198 355.998 127.972 C 356.713 134.103 356.86 140.886 356.526 148.165 C 410.79 138.123 422.687 159.324 421.849 197.902 C 408.049 162.965 377.983 164.764 353.507 175.618 C 340.292 256.818 281.621 385.198 280.694 377.258 L 143.878 239.86 Z M 171.369 103.195 C 170.522 103.713 170.085 104.023 170.101 104.079 C 169.98 103.856 170.426 103.554 171.369 103.195 Z"/>
    <ellipse style="stroke-width: 17; paint-order: fill; stroke: rgb(255, 180, 0); fill: rgb(46, 52, 64);" cx="190.206" cy="323.484" rx="105.769" ry="105.769"/>
  </a><path style="stroke-width: 17; fill: oklch(0.88 0 0); stroke: rgb(255, 180, 0);" d="M 92.824 302.174 L 290.323 347.53 L 92.824 302.174 Z"/><ellipse style="stroke-width: 17; fill-opacity: 0; fill: oklch(0.88 0 0); stroke: rgb(255, 180, 0);" cx="243.351" cy="321.823" rx="44.554" ry="99.898" transform="matrix(1, 0, -0.175167, 1, 2.543408, 2.114192)"/><path style="stroke-width: 17; fill-opacity: 0; fill: oklch(0.88 0 0); stroke: rgb(255, 180, 0); transform-origin: 160.129px 395.647px;" d="M 71.247 391.176 C 80.308 429.333 184.358 442.706 221.655 416.472 C 227.867 394.036 137.679 330.122 71.247 391.176 Z" transform="matrix(-0.994522, -0.104528, 0.104528, -0.994522, 0.000012, -0.000024)"/><path style="stroke-width: 17; fill-opacity: 0; fill: oklch(0.88 0 0); stroke: rgb(255, 180, 0); transform-origin: 184.491px 256.466px;" d="M 88.877 253.857 C 127.505 309.689 206.827 301.993 234.568 272.722 C 238.825 259.151 176.317 178.472 88.877 253.857 Z" transform="matrix(-0.994522, -0.104528, 0.104528, -0.994522, -0.000014, -0.000004)"/><text style="fill: rgb(51, 51, 51); font-family: &quot;Blockat DEMO&quot;; font-size: 329.3px; font-style: italic; white-space: pre;" x="514.424" y="359.469">radio</text></svg>